HIERARCHY
ROOT Hips
{
  OFFSET 43.0842 91.1655 101.099
  CHANNELS 6 Xposition Yposition Zposition Zrotation Xrotation Yrotation
  JOINT LeftUpLeg
  {
    OFFSET 8.64259 1.95398 -2.38835
    CHANNELS 3 Zrotation Xrotation Yrotation
    JOINT LeftLeg
    {
      OFFSET 43.7702 0 0
      CHANNELS 3 Zrotation Xrotation Yrotation
      JOINT LeftFoot
      {
        OFFSET 40.6238 0 0
        CHANNELS 3 Zrotation Xrotation Yrotation
        JOINT LeftToeBase
        {
          OFFSET 12.7242 0 0
          CHANNELS 3 Zrotation Xrotation Yrotation
          End Site
          {
            OFFSET 0 0 0
          }
        }
      }
    }
  }
  JOINT RightUpLeg
  {
    OFFSET -8.2249 1.95398 -2.59336
    CHANNELS 3 Zrotation Xrotation Yrotation
    JOINT RightLeg
    {
      OFFSET 43.5653 0 0
      CHANNELS 3 Zrotation Xrotation Yrotation
      JOINT RightFoot
      {
        OFFSET 40.6238 0 0
        CHANNELS 3 Zrotation Xrotation Yrotation
        JOINT RightToeBase
        {
          OFFSET 12.7242 0 0
          CHANNELS 3 Zrotation Xrotation Yrotation
          End Site
          {
            OFFSET 0 0 0
          }
        }
      }
    }
  }
  JOINT Spine
  {
    OFFSET 0.165834 0.87714 6.61349
    CHANNELS 3 Zrotation Xrotation Yrotation
    JOINT Spine1
    {
      OFFSET 7.38963 1.71661e-005 0
      CHANNELS 3 Zrotation Xrotation Yrotation
      JOINT Spine2
      {
        OFFSET 11.9445 1.14441e-005 0
        CHANNELS 3 Zrotation Xrotation Yrotation
        JOINT Spine3
        {
          OFFSET 14.7254 4.19617e-005 0
          CHANNELS 3 Zrotation Xrotation Yrotation
          JOINT Spine4
          {
            OFFSET 10.9679 0 0
            CHANNELS 3 Zrotation Xrotation Yrotation
            JOINT RightShoulder
            {
              OFFSET 2.46616 -1.6653 3.69651
              CHANNELS 3 Zrotation Xrotation Yrotation
              JOINT RightArm
              {
                OFFSET 13.0012 0 0
                CHANNELS 3 Zrotation Xrotation Yrotation
                JOINT RightForeArm
                {
                  OFFSET 28.7848 1.52588e-005 0
                  CHANNELS 3 Zrotation Xrotation Yrotation
                  JOINT RightHand
                  {
                    OFFSET 26.5688 1.52588e-005 0
                    CHANNELS 3 Zrotation Xrotation Yrotation
                    End Site
                    {
                      OFFSET 0 0 0
                    }
                  }
                }
              }
            }
            JOINT LeftShoulder
            {
              OFFSET 2.38034 -1.29275 -3.7523
              CHANNELS 3 Zrotation Xrotation Yrotation
              JOINT LeftArm
              {
                OFFSET 16.3182 6.10351e-005 0
                CHANNELS 3 Zrotation Xrotation Yrotation
                JOINT LeftForeArm
                {
                  OFFSET 27.0901 0 0
                  CHANNELS 3 Zrotation Xrotation Yrotation
                  JOINT LeftHand
                  {
                    OFFSET 24.5451 1.52588e-005 0
                    CHANNELS 3 Zrotation Xrotation Yrotation
                    End Site
                    {
                      OFFSET 0 0 0
                    }
                  }
                }
              }
            }
            JOINT Neck
            {
              OFFSET 5.0226 -0.0266342 0
              CHANNELS 3 Zrotation Xrotation Yrotation
              JOINT Head
              {
                OFFSET 6.69364 2.86102e-005 0
                CHANNELS 3 Zrotation Xrotation Yrotation
                End Site
                {
                  OFFSET 0 0 0
                }
              }
            }
          }
        }
      }
    }
  }
}
MOTION
Frames:	6
Frame Time:	0.0333333
-18.0398 91.7652 53.4874 -79.4761 -80.5437 -79.7174 -175.03 24.2444 96.9667 -23.0496 16.0738 -3.45249 58.363 -4.64135 8.14166 27.5072 -2.01662 0.531488 175.102 9.22005 85.062 -31.6329 -3.53147 -4.44165 69.8113 -8.20356 -0.848298 44.4503 -6.86618 -8.81757 0.227409 7.47307 -90.0361 11.937 0.435225 -0.118913 0.266102 0.42957 -0.137959 -22.2695 0.450838 0.0173912 -2.25684 0.45084 0.0173895 93.11 -46.9608 -96.593 4.38269 -31.416 -55.6356 -15.7379 -2.81748 -103.4 -15.4714 -3.08695 10.485 -107.709 -59.8527 57.3056 -5.88858 -51.2819 -35.355 20.0323 20.721 -97.1397 24.99 3.34946 8.89079 -15.7239 13.8254 11.8869 -1.06036 14.1579 9.59473 
-17.7072 91.8677 53.5611 -80.3627 -80.0017 -80.8197 -175.167 23.9213 96.721 -22.9259 15.162 -3.4943 58.5598 -4.71772 8.02316 27.1443 -2.20142 0.0885707 175.022 9.66502 84.7294 -32.7913 -4.18064 -4.48923 70.518 -9.18974 -0.946386 45.0823 -7.24444 -8.9102 0.261614 7.47315 -90.0088 11.9322 0.516089 -0.073197 0.261381 0.51236 -0.0958448 -22.2746 0.514222 0.0852964 -2.26195 0.514222 0.0852952 92.9929 -47.0794 -96.7578 4.84141 -30.9987 -55.7179 -16.3343 -3.07182 -103.494 -15.4755 -3.09075 10.8312 -107.607 -59.7754 57.4057 -6.60423 -51.4219 -35.7806 20.0397 20.8972 -97.3757 24.9668 3.34347 8.86486 -15.7531 13.8809 11.7114 -0.660855 14.2533 9.77843 
-17.4626 91.9465 53.6384 -82.3715 -79.83 -83.0671 -175.248 23.3085 96.3855 -22.6721 14.5772 -3.48806 58.5744 -4.81468 7.86511 27.0553 -2.12553 -0.199992 175.149 10.0058 84.6124 -34.7177 -4.19268 -4.80157 70.5919 -9.33454 -0.351435 44.8748 -7.11852 -8.88086 0.279733 7.47583 -89.9934 11.9222 0.559456 -0.0470435 0.251408 0.556839 -0.0716218 -22.2847 0.547724 0.123276 -2.27203 0.547724 0.123279 93.0314 -47.001 -96.7111 5.77891 -30.7026 -55.7946 -17.3334 -3.39004 -103.53 -15.3258 -3.03642 10.8782 -107.66 -59.7279 57.318 -8.11658 -51.7819 -36.4936 19.7949 21.3545 -97.7255 24.5263 3.23781 8.51916 -16.0192 13.7677 11.8634 -0.214539 14.1989 9.55217 
-17.484 91.9298 53.6427 -84.33 -80.0999 -85.2414 -175.356 22.9288 96.1273 -22.6806 14.4628 -3.47453 58.6121 -5.00946 7.71343 27.0616 -2.1199 -0.196027 175.268 9.79447 84.5249 -35.7246 -5.91577 -4.94834 68.7873 -7.8517 -0.582781 43.5924 -6.54635 -7.75492 0.26675 7.47011 -89.9678 11.9338 0.545672 0.00532476 0.262966 0.545384 -0.0187103 -22.273 0.518841 0.169082 -2.26039 0.518844 0.169075 93.1888 -46.807 -96.4959 6.48386 -30.8377 -56.1325 -17.8922 -3.25614 -103.64 -15.3952 -3.06036 10.6207 -107.308 -59.457 57.6643 -10.5677 -52.2122 -37.3572 20.5517 21.8144 -98.8428 24.1692 3.15811 8.49838 -15.9659 13.8158 11.8437 -0.456405 14.2164 9.35999 
-17.6686 91.8548 53.5457 -85.5283 -80.8331 -86.7646 -175.494 22.7453 95.8543 -22.5603 15.007 -3.50301 58.6179 -5.18912 7.68016 26.9129 -2.22901 -0.324691 175.089 9.11391 84.3464 -35.0221 -7.07694 -4.84116 67.3797 -6.61461 -1.85096 43.5014 -6.90223 -5.65174 0.208943 7.4485 -89.9246 11.9767 0.451075 0.101555 0.305788 0.455107 0.0815818 -22.2298 0.399694 0.232427 -2.21719 0.3997 0.232416 93.1068 -46.7363 -96.6406 6.81978 -30.578 -56.3489 -18.3888 -3.25303 -103.95 -15.357 -3.04629 10.6114 -107.745 -59.6463 57.1767 -11.6394 -52.7407 -37.6769 21.2284 22.0648 -99.8179 23.7991 3.07564 8.36857 -16.1067 13.9422 12.0315 -0.36835 14.3591 9.10982 
-18.0243 91.7672 53.3473 -87.3516 -81.5095 -88.9896 -175.583 22.4365 95.5863 -22.1756 14.8148 -3.46165 58.4477 -5.37156 7.33379 26.7852 -2.13198 -0.719596 174.744 8.28234 84.2341 -33.86 -5.91393 -4.70339 67.6962 -6.85337 -2.39971 43.9215 -7.23051 -5.251 0.178694 7.42844 -89.8674 12.0168 0.417919 0.218948 0.345851 0.427153 0.200322 -22.1895 0.332795 0.334426 -2.17689 0.332798 0.334418 93.0198 -46.8533 -96.7577 6.99776 -30.2363 -56.358 -18.6537 -3.28124 -104.417 -15.2915 -3.02262 10.697 -108.738 -60.1733 56.1158 -11.5906 -52.7336 -37.3522 21.4335 21.7541 -100.158 23.4467 2.9922 7.9244 -16.4495 13.7856 12.5657 0.177872 14.2502 8.15345 
